<?xml version="1.0" encoding="utf-8"?>
<!-- Generator: Adobe Illustrator 19.0.1, SVG Export Plug-In . SVG Version: 6.00 Build 0)  -->
<svg version="1.0" id="Livello_1" xmlns="http://www.w3.org/2000/svg" xmlns:xlink="http://www.w3.org/1999/xlink" x="0px" y="0px"
	 viewBox="0 0 215.4 70" style="enable-background:new 0 0 215.4 70;" xml:space="preserve">
<style type="text/css">
	.st0{fill:#004216;}
	.st1{clip-path:url(#SVGID_2_);fill:#004216;}
	.st2{fill:#2C5035;}
	.st3{fill:#FFDA00;}
</style>
<polygon class="st0" points="0.5,59.9 2.1,59.9 3.4,67.6 3.4,67.6 4.7,59.9 6.4,59.9 7.7,67.6 7.7,67.6 9,59.9 10.6,59.9 8.6,69.8 
	6.8,69.8 5.5,62.4 5.5,62.4 4.2,69.8 2.4,69.8 "/>
<path class="st0" d="M22,66.1l-1.1-4.9h0l-1.2,4.9H22z M19.9,59.9h2l2.6,9.9h-1.6l-0.6-2.4h-2.9l-0.6,2.4h-1.6L19.9,59.9z"/>
<polygon class="st0" points="33,61.3 30.6,61.3 30.6,59.9 36.8,59.9 36.8,61.3 34.5,61.3 34.5,69.8 33,69.8 "/>
<polygon class="st0" points="44.7,59.9 50,59.9 50,61.3 46.2,61.3 46.2,64 49.8,64 49.8,65.3 46.2,65.3 46.2,68.5 50.1,68.5 
	50.1,69.8 44.7,69.8 "/>
<g>
	<defs>
		<polyline id="SVGID_1_" points="215.4,0 0,0 0,70 215.4,70 		"/>
	</defs>
	<clipPath id="SVGID_2_">
		<use xlink:href="#SVGID_1_"  style="overflow:visible;"/>
	</clipPath>
	<path class="st1" d="M61.1,64.3c1,0,1.6-0.6,1.6-1.6c0-1.1-0.5-1.6-1.5-1.6h-1.3v3.2H61.1z M58.3,59.9h3.5c1.4,0,2.5,0.7,2.5,2.5
		c0,1.3-0.6,2.3-1.6,2.4v0c1,0.1,1.5,0.6,1.6,2c0,0.6,0,1.4,0.1,2c0,0.5,0.3,0.7,0.5,0.9h-1.8c-0.2-0.2-0.2-0.5-0.3-0.9
		c-0.1-0.6,0-1.1-0.1-1.9c0-1.1-0.4-1.5-1.4-1.5h-1.3v4.3h-1.6V59.9z"/>
</g>
<polygon class="st0" points="84,61.3 81.6,61.3 81.6,59.9 87.9,59.9 87.9,61.3 85.5,61.3 85.5,69.8 84,69.8 "/>
<polygon class="st0" points="95.7,59.9 101,59.9 101,61.3 97.3,61.3 97.3,64 100.8,64 100.8,65.3 97.3,65.3 97.3,68.5 101.1,68.5 
	101.1,69.8 95.7,69.8 "/>
<g>
	<path class="st0" d="M115.3,66.3v0.2c0,1.8-0.7,3.5-3,3.5c-2.5,0-3.3-1.6-3.3-5.1c0-3.5,0.8-5.1,3.3-5.1c2.8,0,3,2.1,3,3.1V63h-1.6
		v-0.2c0-0.9-0.3-2-1.4-1.9c-1.2,0-1.7,0.7-1.7,3.9c0,3.2,0.5,4,1.7,4c1.3,0,1.5-1.5,1.5-2.4v-0.2H115.3z"/>
</g>
<polygon class="st0" points="123.4,59.9 124.9,59.9 124.9,63.9 127.8,63.9 127.8,59.9 129.4,59.9 129.4,69.8 127.8,69.8 127.8,65.2 
	124.9,65.2 124.9,69.8 123.4,69.8 "/>
<polygon class="st0" points="138,59.9 139.9,59.9 142.8,67.3 142.8,67.3 142.8,59.9 144.3,59.9 144.3,69.8 142.4,69.8 139.5,62.3 
	139.5,62.3 139.5,69.8 138,69.8 "/>
<g>
	<path class="st0" d="M157.6,64.8c0-3.3-0.7-3.9-1.7-3.9c-0.9,0-1.7,0.6-1.7,3.9c0,3.4,0.7,4,1.7,4
		C156.8,68.8,157.6,68.2,157.6,64.8 M152.6,64.9c0-3.5,1-5.1,3.3-5.1c2.3,0,3.3,1.6,3.3,5.1c0,3.5-1,5.1-3.3,5.1
		C153.6,70,152.6,68.4,152.6,64.9"/>
</g>
<polygon class="st0" points="167.3,59.9 168.9,59.9 168.9,68.5 172.7,68.5 172.7,69.8 167.3,69.8 "/>
<g>
	<path class="st0" d="M185.3,64.8c0-3.3-0.7-3.9-1.7-3.9c-0.9,0-1.7,0.6-1.7,3.9c0,3.4,0.7,4,1.7,4
		C184.5,68.8,185.3,68.2,185.3,64.8 M180.3,64.9c0-3.5,1-5.1,3.3-5.1s3.3,1.6,3.3,5.1c0,3.5-1,5.1-3.3,5.1S180.3,68.4,180.3,64.9"/>
	<path class="st0" d="M200,68.7L200,68.7c-0.5,0.9-1,1.3-2.2,1.3c-2.2,0-2.9-1.6-2.9-5.1c0-3.5,1-5.1,3.3-5.1c2.5,0,2.9,2,2.9,2.9
		v0.2h-1.5v-0.2c0-0.7-0.3-1.6-1.4-1.6c-1.1,0-1.7,0.7-1.7,3.9c0,3.2,0.5,4,1.6,4c1.2,0,1.6-0.9,1.6-3h-1.7v-1.2h3.2v5.2H200V68.7z"
		/>
</g>
<polygon class="st0" points="211.2,65.9 208.6,59.9 210.4,59.9 212.1,64.2 213.8,59.9 215.4,59.9 212.8,65.9 212.8,69.8 211.2,69.8 
	"/>
<g>
	<path class="st2" d="M211.2,0L3.9,0C1.8,0,0,1.8,0,4v47.7c0,2.2,1.8,4,3.9,4h207.2c2.2,0,3.9-1.8,3.9-4V4
		C215.1,1.8,213.3,0,211.2,0"/>
</g>
<rect x="3.3" y="3.2" class="st3" width="208.7" height="49"/>
<g>
	<path class="st0" d="M75.6,64.5c0,1.4-1.1,2.5-2.5,2.5c-1.4,0-2.5-1.1-2.5-2.5c0-1.4,1.1-2.5,2.5-2.5C74.5,62,75.6,63.1,75.6,64.5"
		/>
	<path class="st0" d="M186.2,23.8h-26.1v-7h26.1c1.9,0,3.5,1.6,3.5,3.5C189.7,22.2,188.1,23.8,186.2,23.8 M186.2,38.5h-26.1v-7h26.1
		c1.9,0,3.5,1.6,3.5,3.5S188.1,38.5,186.2,38.5 M195.1,27.7c4.5,0,8.1-3.6,8.1-8.1c0-4.5-3.6-8.1-8.1-8.1h-35.6h0h-12.2
		c-0.3,0-0.5,0.2-0.5,0.5v31.3c0,0.3,0.2,0.5,0.5,0.5h12.2h0h35.6c4.5,0,8.1-3.6,8.1-8.1C203.2,31.4,199.6,27.7,195.1,27.7"/>
	<path class="st0" d="M90.7,32.1c-0.3,0-0.4-0.2-0.2-0.4l11.3-12.9c0.2-0.2,0.5-0.2,0.7,0L114,31.7c0.2,0.2,0.1,0.4-0.2,0.4H90.7z
		 M112.1,12c-0.2-0.2-0.6-0.4-0.9-0.4H99.4c-0.3,0-0.7,0.2-0.9,0.4l-27,31.5c-0.2,0.2-0.1,0.4,0.2,0.4h8.2c0.3,0,0.7-0.2,0.9-0.4
		l5.1-6c0.2-0.2,0.6-0.4,0.9-0.4l30.7,0c0.3,0,0.7,0.2,0.9,0.4l5.2,6c0.2,0.2,0.6,0.4,0.9,0.4h14.8c0.3,0,0.4-0.2,0.2-0.4L112.1,12z
		"/>
	<path class="st2" d="M206.9,8.8h0.5c0.3,0,0.4,0,0.5-0.1c0.1-0.1,0.1-0.2,0.1-0.3c0-0.1,0-0.2-0.1-0.2c0-0.1-0.1-0.1-0.2-0.2
		c-0.1,0-0.2,0-0.4,0h-0.5V8.8z M206.5,10.4V7.6h1c0.3,0,0.5,0,0.7,0.1c0.1,0,0.3,0.1,0.3,0.3c0.1,0.1,0.1,0.3,0.1,0.4
		c0,0.2-0.1,0.4-0.2,0.5c-0.1,0.1-0.3,0.2-0.6,0.3c0.1,0,0.2,0.1,0.2,0.1c0.1,0.1,0.2,0.3,0.4,0.5l0.4,0.5h-0.5L208,9.9
		c-0.2-0.3-0.3-0.5-0.4-0.6c-0.1-0.1-0.2-0.1-0.4-0.1h-0.3v1.2H206.5z M207.6,6.8c-0.4,0-0.7,0.1-1.1,0.3c-0.3,0.2-0.6,0.4-0.8,0.8
		c-0.2,0.3-0.3,0.7-0.3,1c0,0.4,0.1,0.7,0.3,1.1c0.2,0.4,0.5,0.6,0.8,0.8c0.4,0.2,0.7,0.3,1.1,0.3c0.4,0,0.7-0.1,1.1-0.3
		c0.3-0.2,0.6-0.4,0.8-0.8c0.2-0.3,0.3-0.7,0.3-1.1c0-0.4-0.1-0.7-0.3-1c-0.2-0.4-0.4-0.6-0.8-0.8C208.3,6.9,207.9,6.8,207.6,6.8
		 M207.6,6.4c0.4,0,0.8,0.1,1.2,0.3c0.4,0.2,0.7,0.5,1,1c0.2,0.4,0.3,0.8,0.3,1.3c0,0.4-0.1,0.9-0.3,1.3c-0.2,0.4-0.5,0.7-0.9,1
		c-0.4,0.2-0.8,0.3-1.3,0.3c-0.4,0-0.9-0.1-1.3-0.3c-0.4-0.2-0.7-0.5-1-1C205.2,9.8,205,9.4,205,9c0-0.4,0.1-0.9,0.3-1.3
		c0.2-0.4,0.5-0.7,1-1C206.7,6.5,207.2,6.4,207.6,6.4"/>
	<path class="st0" d="M52.5,11.6H39.2h-0.4H12.1c-0.3,0-0.6,0.2-0.6,0.6v21.6c0,0.3,0.2,0.6,0.6,0.6l12.7,0c0.3,0,0.6-0.2,0.6-0.6
		l0-14.9c0-0.3,0.2-0.6,0.6-0.6h12.9h0.4h7.1c5.4,0,9.7,4.4,9.7,9.7c0,5.4-4.4,9.7-9.7,9.7h-7.1h-0.4H12.1c-0.3,0-0.6,0.2-0.6,0.6
		V44c0,0.3,0.2,0.6,0.6,0.6h26.7h0.4h13.3c8.6,0,15.6-7,15.6-15.6v-1.6C68.1,18.6,61.1,11.6,52.5,11.6"/>
</g>
</svg>
